<svg width="1381" height="283" viewBox="0 0 1381 283" fill="none" xmlns="http://www.w3.org/2000/svg">
<g clip-path="url(#clip0_212_2)">
<path d="M1124.16 98.7359C1105.05 84.8089 1141.88 59.7403 1144.21 73.6673" stroke="black" stroke-width="7"/>
<path d="M1192.43 59.5204C1193.98 59.1056 1195.62 59.3189 1197 60.1132L1340.8 142.798C1343.67 144.45 1344.65 148.113 1342.99 150.979L1284.22 252.365C1282.56 255.232 1278.88 256.216 1276.01 254.564L1130.2 170.725C1128.98 170.022 1128.04 168.91 1127.56 167.585L1110.6 120.936C1110 119.274 1110.16 117.428 1111.05 115.895L1122.19 96.6815L1133.49 77.1962C1134.28 75.8216 1135.59 74.8169 1137.13 74.4032L1192.43 59.5204ZM1146.07 96.4823C1137.58 96.4824 1130.69 103.342 1130.69 111.803C1130.69 120.263 1137.58 127.122 1146.07 127.122C1154.57 127.122 1161.45 120.263 1161.45 111.803C1161.45 103.342 1154.57 96.4823 1146.07 96.4823Z" fill="black"/>
<path d="M1140.01 110.902C1136.25 134.631 1103.24 4.56225 1097.59 -24.7504" stroke="black" stroke-width="7"/>
<path d="M1150.27 109.045C1146.61 132.774 1113.33 1.31261 1107.85 -28" stroke="black" stroke-width="7"/>
<path d="M168.642 173.745C167.508 188.325 163.782 201.123 157.464 212.139C151.308 223.155 142.641 231.741 131.463 237.897C120.447 243.891 106.92 246.888 90.882 246.888C72.9 246.888 57.591 242.919 44.955 234.981C32.481 226.881 23.004 216.108 16.524 202.662C10.044 189.216 6.804 174.231 6.804 157.707C6.804 145.557 8.586 134.136 12.15 123.444C15.876 112.59 21.303 103.113 28.431 95.013C35.559 86.913 44.307 80.595 54.675 76.059C65.205 71.361 77.274 69.012 90.882 69.012C113.724 69.012 131.544 75.087 144.342 87.237C157.302 99.225 165.078 115.425 167.67 135.837H130.248C129.438 130.329 128.061 125.469 126.117 121.257C124.173 116.883 121.581 113.238 118.341 110.322C115.263 107.244 111.456 104.976 106.92 103.518C102.384 101.898 97.038 101.088 90.882 101.088C79.866 101.088 70.794 103.842 63.666 109.35C56.7 114.696 51.597 121.743 48.357 130.491C45.117 139.077 43.497 148.149 43.497 157.707C43.497 167.427 45.117 176.661 48.357 185.409C51.597 193.995 56.7 201.042 63.666 206.55C70.794 212.058 79.866 214.812 90.882 214.812C97.686 214.812 103.518 213.84 108.378 211.896C113.238 209.952 117.288 207.198 120.528 203.634C123.93 200.07 126.522 195.777 128.304 190.755C130.086 185.733 131.22 180.063 131.706 173.745H168.642ZM187.032 60.75H221.781V243H187.032V60.75ZM221.781 176.418L217.893 148.473C217.893 144.261 218.46 139.563 219.594 134.379C220.89 129.195 223.158 124.254 226.398 119.556C229.8 114.696 234.579 110.727 240.735 107.649C246.891 104.571 254.91 103.032 264.792 103.032C273.54 103.032 281.316 104.814 288.12 108.378C294.924 111.942 300.27 117.855 304.158 126.117C308.046 134.217 309.99 145.233 309.99 159.165V243H275.241V162.324C275.241 156.978 274.836 152.118 274.026 147.744C273.216 143.208 271.353 139.644 268.437 137.052C265.683 134.46 261.228 133.164 255.072 133.164C250.212 133.164 245.19 134.541 240.006 137.295C234.822 140.049 230.448 144.585 226.884 150.903C223.482 157.059 221.781 165.564 221.781 176.418ZM379.648 246.888C370.738 246.888 362.8 245.268 355.834 242.028C349.03 238.626 343.603 233.766 339.553 227.448C335.665 221.13 333.721 213.435 333.721 204.363C333.721 193.833 336.232 185.49 341.254 179.334C346.276 173.178 352.837 168.561 360.937 165.483C369.199 162.405 378.028 160.299 387.424 159.165C396.982 158.031 406.216 157.383 415.126 157.221V186.867C399.088 186.543 387.505 187.758 380.377 190.512C373.411 193.104 369.928 197.397 369.928 203.391C369.928 207.765 371.548 210.843 374.788 212.625C378.19 214.407 382.078 215.298 386.452 215.298C390.664 215.298 394.957 214.65 399.331 213.354C403.867 212.058 407.593 209.547 410.509 205.821C413.587 202.095 415.126 196.587 415.126 189.297V172.287H449.875V243H415.126V229.878C411.4 235.062 406.297 239.193 399.817 242.271C393.499 245.349 386.776 246.888 379.648 246.888ZM329.104 157.221C329.104 147.987 331.534 139.239 336.394 130.977C341.254 122.715 348.301 115.992 357.535 110.808C366.769 105.624 377.947 103.032 391.069 103.032C408.889 103.032 422.74 107.892 432.622 117.612C442.504 127.17 448.174 140.373 449.632 157.221H415.126C414.64 150.579 412.777 145.152 409.537 140.94C406.297 136.728 400.141 134.622 391.069 134.622C384.103 134.622 378.757 135.756 375.031 138.024C371.305 140.13 368.713 142.965 367.255 146.529C365.959 149.931 365.311 153.495 365.311 157.221H329.104ZM471.786 106.92H506.535V127.818C508.317 123.444 510.909 119.394 514.311 115.668C517.875 111.942 522.492 108.945 528.162 106.677C533.994 104.247 541.122 103.032 549.546 103.032C558.294 103.032 566.07 104.814 572.874 108.378C579.678 111.942 585.024 117.855 588.912 126.117C592.8 134.217 594.744 145.233 594.744 159.165V243H559.995V162.324C559.995 156.978 559.59 152.118 558.78 147.744C557.97 143.208 556.107 139.644 553.191 137.052C550.437 134.46 545.982 133.164 539.826 133.164C534.966 133.164 529.944 134.541 524.76 137.295C519.576 140.049 515.202 144.585 511.638 150.903C508.236 157.059 506.535 165.564 506.535 176.418V243H471.786V106.92ZM616.542 106.92H651.291V127.818C653.073 123.444 655.665 119.394 659.067 115.668C662.631 111.942 667.248 108.945 672.918 106.677C678.75 104.247 685.878 103.032 694.302 103.032C703.05 103.032 710.826 104.814 717.63 108.378C724.434 111.942 729.78 117.855 733.668 126.117C737.556 134.217 739.5 145.233 739.5 159.165V243H704.751V162.324C704.751 156.978 704.346 152.118 703.536 147.744C702.726 143.208 700.863 139.644 697.947 137.052C695.193 134.46 690.738 133.164 684.582 133.164C679.722 133.164 674.7 134.541 669.516 137.295C664.332 140.049 659.958 144.585 656.394 150.903C652.992 157.059 651.291 165.564 651.291 176.418V243H616.542V106.92ZM792.888 186.624V158.436H864.087L852.909 164.997C853.719 160.299 853.233 155.601 851.451 150.903C849.831 146.043 846.915 142.074 842.703 138.996C838.491 135.756 832.821 134.136 825.693 134.136C816.459 134.136 808.521 137.214 801.879 143.37C795.399 149.364 792.402 158.436 792.888 170.586H756.195C757.005 155.844 760.65 143.532 767.13 133.65C773.61 123.606 781.953 115.992 792.159 110.808C802.365 105.624 813.543 103.032 825.693 103.032C834.927 103.032 843.675 104.895 851.937 108.621C860.199 112.347 867.327 117.774 873.321 124.902C879.315 132.03 883.689 140.778 886.443 151.146C889.197 161.514 889.602 173.34 887.658 186.624H792.888ZM825.693 246.888C813.057 246.888 801.798 244.377 791.916 239.355C782.196 234.333 774.339 227.286 768.345 218.214C762.351 209.142 758.544 198.612 756.924 186.624H792.888C794.184 195.048 797.343 202.014 802.365 207.522C807.549 213.03 815.325 215.784 825.693 215.784C832.335 215.784 837.843 214.245 842.217 211.167C846.591 208.089 849.669 204.282 851.451 199.746H888.144C886.2 209.142 882.393 217.404 876.723 224.532C871.053 231.498 863.844 237.006 855.096 241.056C846.51 244.944 836.709 246.888 825.693 246.888ZM906.777 60.75H941.526V243H906.777V60.75ZM1012.3 140.94H1023.72C1035.71 140.94 1043.97 139.077 1048.51 135.351C1053.21 131.463 1055.56 126.036 1055.56 119.07C1055.56 115.668 1054.66 112.671 1052.88 110.079C1051.1 107.325 1048.27 105.138 1044.38 103.518C1040.65 101.898 1035.71 101.088 1029.55 101.088C1023.24 101.088 1017.73 102.141 1013.03 104.247C1008.49 106.191 1004.85 109.107 1002.1 112.995C999.504 116.883 997.965 121.5 997.479 126.846H960.543C960.543 115.344 963.621 105.3 969.777 96.714C976.095 87.966 984.357 81.162 994.563 76.302C1004.93 71.442 1016.19 69.012 1028.34 69.012C1041.3 69.012 1052.56 71.28 1062.12 75.816C1071.67 80.352 1079.05 86.427 1084.23 94.041C1089.58 101.655 1092.25 109.998 1092.25 119.07C1092.25 126.198 1090.71 132.84 1087.63 138.996C1084.55 145.152 1079.61 150.255 1072.81 154.305C1066.17 158.193 1057.34 160.542 1046.32 161.352L1046.56 153.819C1057.9 154.467 1066.98 156.897 1073.78 161.109C1080.75 165.159 1085.77 170.343 1088.85 176.661C1091.92 182.817 1093.46 189.54 1093.46 196.83C1093.46 205.902 1090.87 214.245 1085.69 221.859C1080.5 229.473 1073.05 235.548 1063.33 240.084C1053.61 244.62 1041.87 246.888 1028.1 246.888C1015.95 246.888 1004.69 244.458 994.32 239.598C984.114 234.738 975.933 227.934 969.777 219.186C963.621 210.438 960.543 200.394 960.543 189.054H997.479C997.965 194.4 999.504 199.017 1002.1 202.905C1004.69 206.631 1008.25 209.547 1012.79 211.653C1017.49 213.759 1022.99 214.812 1029.31 214.812C1035.63 214.812 1040.81 213.921 1044.86 212.139C1048.91 210.357 1051.91 207.927 1053.85 204.849C1055.8 201.771 1056.77 198.288 1056.77 194.4C1056.77 187.434 1054.26 182.088 1049.24 178.362C1044.22 174.474 1035.47 172.53 1022.99 172.53H1012.3V140.94Z" fill="black"/>
</g>
<defs>
<clipPath id="clip0_212_2">
<rect width="1381" height="283" fill="white"/>
</clipPath>
</defs>
</svg>
